# 3ds Max Wavefront OBJ Exporter v0.97b - (c)2007 guruware
# File Created: 15.06.2020 01:45:07

mtllib ?????????\08_concrete.mtl

#
# object Obj_834
#

v  68.500000 8.050000 -8.500000
v  51.500000 8.050000 -8.500000
v  51.500000 8.050000 8.500000
v  68.500000 8.050000 8.500000
v  68.500000 5.800000 -8.500000
v  68.500000 5.800000 8.500000
v  51.500000 5.800000 8.500000
v  51.500000 5.800000 -8.500000
# 8 vertices

vn 0.000000 1.000000 -0.000000
vn 0.000000 -1.000000 -0.000000
vn 0.000000 0.000000 1.000000
vn 1.000000 0.000000 -0.000000
vn 0.000000 0.000000 -1.000000
vn -1.000000 0.000000 -0.000000
# 6 vertex normals

vt 0.264706 0.998535 0.000000
vt 0.264706 0.500000 0.000000
vt 0.763241 0.500000 0.000000
vt 0.763241 0.998535 0.000000
vt 0.264706 0.498535 0.000000
vt 0.763241 0.498535 0.000000
vt 0.763241 0.000000 0.000000
vt 0.264706 0.000000 0.000000
vt 0.066176 0.000000 0.000000
vt 0.130888 0.000000 0.000000
vt 0.130888 0.500000 0.000000
vt 0.066176 0.500000 0.000000
vt 0.000000 0.000000 0.000000
vt 0.064712 0.000000 0.000000
vt 0.064712 0.500000 0.000000
vt 0.000000 0.500000 0.000000
vt 0.198529 0.000000 0.000000
vt 0.263241 0.000000 0.000000
vt 0.263241 0.500000 0.000000
vt 0.198529 0.500000 0.000000
vt 0.132353 0.000000 0.000000
vt 0.197065 0.000000 0.000000
vt 0.197065 0.500000 0.000000
vt 0.132353 0.500000 0.000000
# 24 texture coords

o Obj_834
g Obj_834
usemtl mat0
s 1
f -8/-24/-6 -7/-23/-6 -6/-22/-6 -5/-21/-6 
f -4/-20/-5 -3/-19/-5 -2/-18/-5 -1/-17/-5 
f -6/-16/-4 -2/-15/-4 -3/-14/-4 -5/-13/-4 
f -5/-12/-3 -3/-11/-3 -4/-10/-3 -8/-9/-3 
f -8/-8/-2 -4/-7/-2 -1/-6/-2 -7/-5/-2 
f -7/-4/-1 -1/-3/-1 -2/-2/-1 -6/-1/-1 
# 6 polygons

